<?xml version="1.0" encoding="UTF-8" standalone="no"?>
<!-- Created with Inkscape (http://www.inkscape.org/) -->

<svg
   xmlns:dc="http://purl.org/dc/elements/1.1/"
   xmlns:cc="http://creativecommons.org/ns#"
   xmlns:rdf="http://www.w3.org/1999/02/22-rdf-syntax-ns#"
   xmlns:svg="http://www.w3.org/2000/svg"
   xmlns="http://www.w3.org/2000/svg"
   xmlns:sodipodi="http://sodipodi.sourceforge.net/DTD/sodipodi-0.dtd"
   xmlns:inkscape="http://www.inkscape.org/namespaces/inkscape"
   width="55.002457mm"
   height="28.948496mm"
   viewBox="0 0 55.002457 28.948496"
   version="1.1"
   id="svg8"
   inkscape:version="0.92.5 (2060ec1f9f, 2020-04-08)"
   sodipodi:docname="example.svg">
  <defs
     id="defs2">
    <inkscape:path-effect
       effect="bend_path"
       id="path-effect72"
       is_visible="true"
       bendpath="m 121.83382,157.37569 32.84898,-0.75595"
       prop_scale="1.0525832"
       scale_y_rel="false"
       vertical="false"
       bendpath-nodetypes="cc" />
    <inkscape:perspective
       sodipodi:type="inkscape:persp3d"
       inkscape:vp_x="16.795463 : 166.88461 : 1"
       inkscape:vp_y="0 : 999.99999 : 0"
       inkscape:vp_z="205.01301 : 170.22548 : 1"
       inkscape:persp3d-origin="107.09564 : 98.943006 : 1"
       id="perspective10" />
  </defs>
  <sodipodi:namedview
     id="base"
     pagecolor="#ffffff"
     bordercolor="#666666"
     borderopacity="1.0"
     inkscape:pageopacity="0.0"
     inkscape:pageshadow="2"
     inkscape:zoom="3.959798"
     inkscape:cx="84.713306"
     inkscape:cy="67.112608"
     inkscape:document-units="mm"
     inkscape:current-layer="layer1"
     showgrid="false"
     inkscape:window-width="1676"
     inkscape:window-height="998"
     inkscape:window-x="0"
     inkscape:window-y="24"
     inkscape:window-maximized="0"
     fit-margin-top="0"
     fit-margin-left="0"
     fit-margin-right="0"
     fit-margin-bottom="0" />
  <metadata
     id="metadata5">
    <rdf:RDF>
      <cc:Work
         rdf:about="">
        <dc:format>image/svg+xml</dc:format>
        <dc:type
           rdf:resource="http://purl.org/dc/dcmitype/StillImage" />
        <dc:title></dc:title>
      </cc:Work>
    </rdf:RDF>
  </metadata>
  <g
     inkscape:label="Layer 1"
     inkscape:groupmode="layer"
     id="layer1"
     transform="translate(-99.948565,-114.17028)">
    <path
       inkscape:connector-curvature="0"
       id="path3783"
       style="fill:#4d4d9f;fill-opacity:1;fill-rule:evenodd;stroke:none;stroke-width:1.88220477;stroke-linecap:round;stroke-linejoin:round;stroke-miterlimit:4;stroke-dasharray:none;stroke-dashoffset:0.57106102;stroke-opacity:1"
       d="m 99.948565,121.23878 35.856955,6.17271 19.1455,-10.99236 -27.24213,-2.24885 z" />
    <path
       inkscape:connector-curvature="0"
       id="path3785"
       style="fill:#d7d7ff;fill-opacity:1;fill-rule:evenodd;stroke:none;stroke-width:1.88220477;stroke-linecap:round;stroke-linejoin:round;stroke-miterlimit:4;stroke-dasharray:none;stroke-dashoffset:0.57106102;stroke-opacity:1"
       d="m 135.80552,127.41149 v 15.70728 l 19.1455,-17.27148 v -9.42816 z" />
    <path
       inkscape:connector-curvature="0"
       id="path3787"
       style="fill:#8686bf;fill-opacity:1;fill-rule:evenodd;stroke:none;stroke-width:1.88220477;stroke-linecap:round;stroke-linejoin:round;stroke-miterlimit:4;stroke-dasharray:none;stroke-dashoffset:0.57106102;stroke-opacity:1"
       d="m 99.948565,121.23878 35.856955,6.17271 v 15.70728 L 99.948565,132.9324 Z" />
    <g
       aria-label="Exam"
       style="font-style:normal;font-weight:normal;font-size:14.11111069px;line-height:1.25;font-family:sans-serif;letter-spacing:0px;word-spacing:0px;fill:#000000;fill-opacity:1;stroke:none;stroke-width:0.26458332"
       id="text3799"
       transform="translate(-21.314745,-26.860588)">
      <path
         id="path3801"
         style="font-size:7.76111126px;stroke-width:0.26458332"
         d="m 121.26331,148.09937 c 0,0 6.29047,1.08289 6.29047,1.08289 0,0 0,1.38478 0,1.38478 0,0 -4.94442,-0.91299 -4.94442,-0.91299 0,0 0,3.43966 0,3.43966 0,0 4.73784,1.02886 4.73784,1.02886 0,0 0,1.3822 0,1.3822 0,0 -4.73784,-1.08809 -4.73784,-1.08809 0,0 0,4.21007 0,4.21007 0,0 5.06436,1.36458 5.06436,1.36458 0,0 0,1.38627 0,1.38627 0,0 -6.41041,-1.80742 -6.41041,-1.80742 0,0 0,-11.47081 0,-11.47081"
         inkscape:connector-curvature="0" />
      <path
         id="path3803"
         style="font-size:7.76111126px;stroke-width:0.26458332"
         d="m 136.03656,153.91362 c 0,0 -2.69877,4.1326 -2.69877,4.1326 0,0 2.8387,5.72874 2.8387,5.72874 0,0 -1.446,-0.4077 -1.446,-0.4077 0,0 -2.17234,-4.35852 -2.17234,-4.35852 0,0 -2.17234,3.13353 -2.17234,3.13353 0,0 -1.44601,-0.4077 -1.44601,-0.4077 0,0 2.89868,-4.14073 2.89868,-4.14073 0,0 -2.65212,-5.04739 -2.65212,-5.04739 0,0 1.446,0.2886 1.446,0.2886 0,0 1.97911,3.79353 1.97911,3.79353 0,0 1.97909,-3.00355 1.97909,-3.00355 0,0 1.446,0.28859 1.446,0.28859"
         inkscape:connector-curvature="0" />
      <path
         id="path3805"
         style="font-size:7.76111126px;stroke-width:0.26458332"
         d="m 141.30082,160.06456 c -0.99065,-0.2383 -1.67701,-0.24983 -2.05906,-0.036 -0.38204,0.21189 -0.57306,0.68461 -0.57306,1.41958 0,0.58559 0.14215,1.08945 0.42646,1.51279 0.28877,0.42014 0.6797,0.69806 1.1728,0.83256 0.67969,0.18539 1.22388,0.004 1.63258,-0.54837 0.41315,-0.5614 0.61973,-1.39854 0.61973,-2.50811 0,0 0,-0.37909 0,-0.37909 0,0 -1.21945,-0.29333 -1.21945,-0.29333 m 2.44556,-0.12132 c 0,0 0,5.96606 0,5.96606 0,0 -1.22611,-0.34571 -1.22611,-0.34571 0,0 0,-1.57188 0,-1.57188 -0.27988,0.55194 -0.62861,0.91931 -1.04619,1.10269 -0.41759,0.17529 -0.92846,0.17637 -1.53264,0.005 -0.76409,-0.21707 -1.3727,-0.67655 -1.82583,-1.37524 -0.44868,-0.69915 -0.67302,-1.52626 -0.67302,-2.48455 0,-1.11798 0.27987,-1.89326 0.83961,-2.32977 0.56419,-0.44077 1.40381,-0.53494 2.51885,-0.27853 0,0 1.71922,0.39534 1.71922,0.39534 0,0 0,-0.16641 0,-0.16641 0,-0.78286 -0.18658,-1.42755 -0.55975,-1.93219 -0.36872,-0.5073 -0.88849,-0.83012 -1.55929,-0.97036 -0.42647,-0.0892 -0.84183,-0.10675 -1.24609,-0.0534 -0.40427,0.0524 -0.79298,0.17565 -1.16613,0.36923 0,0 0,-1.51523 0,-1.51523 0.44868,-0.14138 0.88404,-0.22727 1.30606,-0.25698 0.42203,-0.0365 0.83296,-0.0156 1.23278,0.0634 1.0795,0.21331 1.8858,0.76065 2.41888,1.64696 0.5331,0.8929 0.79965,2.13855 0.79965,3.73199 0,0 0,-1e-4 0,-1e-4"
         inkscape:connector-curvature="0" />
      <path
         id="path3807"
         style="font-size:7.76111126px;stroke-width:0.26458332"
         d="m 152.08256,159.25525 c 0.30653,-0.75834 0.67303,-1.29158 1.09951,-1.59876 0.42647,-0.30964 0.92846,-0.40833 1.50598,-0.29421 0.77742,0.15361 1.37714,0.69206 1.79917,1.61915 0.42203,0.92532 0.63304,2.16732 0.63304,3.72222 0,0 0,6.97642 0,6.97642 0,0 -1.23276,-0.34758 -1.23276,-0.34758 0,0 0,-6.85374 0,-6.85374 0,-1.09797 -0.12661,-1.94065 -0.37983,-2.52656 -0.25322,-0.58399 -0.63971,-0.92966 -1.15947,-1.03848 -0.63527,-0.133 -1.13726,0.0796 -1.50597,0.63525 -0.36873,0.55219 -0.55309,1.37174 -0.55309,2.46122 0,0 0,6.30775 0,6.30775 0,0 -1.23278,-0.34758 -1.23278,-0.34758 0,0 0,-6.61569 0,-6.61569 0,-1.06642 -0.1266,-1.88078 -0.37981,-2.44164 -0.25322,-0.56551 -0.64416,-0.90287 -1.17281,-1.01355 -0.62638,-0.13114 -1.12393,0.0744 -1.49265,0.61393 -0.36871,0.52967 -0.55307,1.31532 -0.55307,2.35955 0,0 0,6.08284 0,6.08284 0,0 -1.23278,-0.34758 -1.23278,-0.34758 0,0 0,-10.66113 0,-10.66113 0,0 1.23278,0.24604 1.23278,0.24604 0,0 0,1.67206 0,1.67206 0.27987,-0.60183 0.61527,-1.02147 1.00621,-1.25821 0.39092,-0.23861 0.85515,-0.30551 1.39268,-0.1993 0.54198,0.10709 1.00178,0.40171 1.37937,0.88556 0.38206,0.48709 0.66415,1.14115 0.84628,1.96202 0,0 0,0 0,0"
         inkscape:connector-curvature="0" />
    </g>
    <g
       aria-label="ple"
       style="font-style:normal;font-weight:normal;font-size:14.11111069px;line-height:1.25;font-family:sans-serif;letter-spacing:0px;word-spacing:0px;fill:#000000;fill-opacity:1;stroke:none;stroke-width:0.26458332"
       id="text3834"
       transform="matrix(0,1,1,0,-10.076505,-12.939025)">
      <path
         inkscape:connector-curvature="0"
         id="path3836"
         style="stroke-width:0.26458332"
         d="m 150.34576,147.13181 c 0,0 4.58458,0 4.58458,0 0,0 1.12746,-1.24979 1.12746,-1.24979 0,0 -12.252,0 -12.252,0 0,0 -0.80773,1.24979 -0.80773,1.24979 0,0 1.31209,0 1.31209,0 -0.68783,0.26122 -1.28189,0.58999 -1.78334,0.98633 -0.50514,0.40083 -0.93386,0.87823 -1.28941,1.43219 -0.58969,0.91877 -0.68779,1.66414 -0.30964,2.23612 0.35462,0.57648 1.12303,0.86473 2.32068,0.86473 1.19765,0 2.39216,-0.28825 3.59896,-0.86473 1.22368,-0.57198 2.22743,-1.31735 2.99591,-2.23612 0.46334,-0.55396 0.74283,-1.03136 0.83528,-1.43219 0.0794,-0.39634 -0.0312,-0.72511 -0.33284,-0.98633 0,0 0,0 0,0 m -6.14359,4.22903 c -0.94982,0 -1.56151,-0.18916 -1.84226,-0.56747 -0.29818,-0.37381 -0.23146,-0.88949 0.20733,-1.54704 0.43879,-0.65755 1.07684,-1.17549 1.9214,-1.5538 0.84598,-0.37381 1.79479,-0.56072 2.83932,-0.56072 1.04452,0 1.71959,0.18691 2.01804,0.56072 0.28023,0.37831 0.15012,0.89625 -0.38312,1.5538 -0.53323,0.65755 -1.22642,1.17323 -2.07246,1.54704 -0.84477,0.37831 -1.73843,0.56747 -2.68825,0.56747 0,0 0,0 0,0" />
      <path
         inkscape:connector-curvature="0"
         id="path3838"
         style="stroke-width:0.26458332"
         d="m 135.28101,154.71164 c 0,0 -0.7137,1.24304 -0.7137,1.24304 0,0 9.73777,0 9.73777,0 0,0 1.03375,-1.24304 1.03375,-1.24304 0,0 -10.05782,0 -10.05782,0" />
      <path
         inkscape:connector-curvature="0"
         id="path3840"
         style="stroke-width:0.26458332"
         d="m 133.8772,165.02752 c 0,0 0.42813,0 0.42813,0 0,0 4.26498,-5.71529 4.26498,-5.71529 0.68086,0.0541 1.03018,0.31078 1.04207,0.77016 -0.006,0.46388 -0.34615,1.10792 -1.01424,1.93211 -0.38698,0.4774 -0.80539,0.93903 -1.2533,1.3849 -0.44898,0.45038 -0.93404,0.89626 -1.45332,1.33762 0,0 0.83606,0 0.83606,0 0.5032,-0.44587 0.98686,-0.903 1.4496,-1.37139 0.465,-0.46839 0.89989,-0.94354 1.30297,-1.42544 1.00957,-1.20701 1.51752,-2.16406 1.50561,-2.87115 -0.0398,-0.70259 -0.59347,-1.05388 -1.64279,-1.05388 -1.08483,0 -2.17357,0.33328 -3.24845,0.99983 -1.05789,0.67106 -1.94206,1.57406 -2.6705,2.70901 -0.65329,1.01786 -0.92584,1.82178 -0.83189,2.41177 0.0686,0.5945 0.49226,0.89175 1.28507,0.89175 0,0 0,0 0,0 m 0.64112,-1.24304 c -0.4932,-0.009 -0.75943,-0.20044 -0.80404,-0.57424 -0.0551,-0.3693 0.11913,-0.86021 0.52807,-1.47273 0.46306,-0.69358 0.99415,-1.24979 1.59929,-1.66863 0.61006,-0.41435 1.23946,-0.65305 1.88389,-0.7161 0,0 -3.20721,4.4317 -3.20721,4.4317" />
    </g>
  </g>
</svg>
