<?xml version="1.0" encoding="UTF-8" standalone="no"?>
<svg
   xmlns:dc="http://purl.org/dc/elements/1.1/"
   xmlns:cc="http://creativecommons.org/ns#"
   xmlns:rdf="http://www.w3.org/1999/02/22-rdf-syntax-ns#"
   xmlns:svg="http://www.w3.org/2000/svg"
   xmlns="http://www.w3.org/2000/svg"
   xmlns:sodipodi="http://sodipodi.sourceforge.net/DTD/sodipodi-0.dtd"
   xmlns:inkscape="http://www.inkscape.org/namespaces/inkscape"
   viewBox="0 0 410.25597 297.12888"
   height="297.12888"
   width="410.25598"
   xml:space="preserve"
   id="svg2"
   version="1.1"
   sodipodi:docname="TAILOR logo - full-color rgb.svg"
   inkscape:version="0.92.5 (2060ec1f9f, 2020-04-08)"><sodipodi:namedview
     pagecolor="#ffffff"
     bordercolor="#666666"
     borderopacity="1"
     objecttolerance="10"
     gridtolerance="10"
     guidetolerance="10"
     inkscape:pageopacity="0"
     inkscape:pageshadow="2"
     inkscape:window-width="556"
     inkscape:window-height="998"
     id="namedview111"
     showgrid="false"
     fit-margin-top="0"
     fit-margin-left="0"
     fit-margin-right="0"
     fit-margin-bottom="0"
     inkscape:zoom="0.29733907"
     inkscape:cx="-97.55686"
     inkscape:cy="135.93268"
     inkscape:window-x="560"
     inkscape:window-y="24"
     inkscape:window-maximized="0"
     inkscape:current-layer="svg2" /><metadata
     id="metadata8"><rdf:RDF><cc:Work
         rdf:about=""><dc:format>image/svg+xml</dc:format><dc:type
           rdf:resource="http://purl.org/dc/dcmitype/StillImage" /><dc:title></dc:title></cc:Work></rdf:RDF></metadata><defs
     id="defs6"><clipPath
       id="clipPath18"
       clipPathUnits="userSpaceOnUse"><path
         id="path16"
         d="m 565.437,400.089 c 0.007,-0.024 0.017,-0.036 0.023,-0.079 v 0 c -0.005,0.036 -0.002,0.05 -0.005,0.08 v 0 z"
         inkscape:connector-curvature="0" /></clipPath><linearGradient
       id="linearGradient30"
       spreadMethod="pad"
       gradientTransform="matrix(0.0235596,0,0,-0.0235596,565.4364,400.05023)"
       gradientUnits="userSpaceOnUse"
       y2="0"
       x2="1"
       y1="0"
       x1="0"><stop
         id="stop24"
         offset="0"
         style="stop-opacity:1;stop-color:#009ee2" /><stop
         id="stop26"
         offset="0.996396"
         style="stop-opacity:1;stop-color:#29235c" /><stop
         id="stop28"
         offset="1"
         style="stop-opacity:1;stop-color:#29235c" /></linearGradient><clipPath
       id="clipPath40"
       clipPathUnits="userSpaceOnUse"><path
         id="path38"
         d="m 362.011,388.493 v -17.974 l -14.12,-8.487 v -36.587 l 14.662,-7.875 v -17.146 l 31.437,-18.338 21.869,18.179 c 4.091,-8.801 13.721,-15.611 25.453,-15.611 v 0 c 11.31,0 20.651,6.333 21.965,14.473 v 0 c 1.61,-0.499 3.299,-0.765 5.011,-0.765 v 0 c 2.69,0 5.433,0.637 7.993,1.982 v 0 c 7.767,4.08 11.121,13.233 7.964,20.988 v 0 c 3.822,2.382 6.75,5.786 8.313,9.735 v 0 c 1.755,4.434 1.592,9.01 -0.45,12.901 v 0 c 1.203,2.283 1.892,4.876 1.892,7.63 v 0 c 0,8.403 -6.34,15.342 -14.486,16.312 v 0 c 0.414,1.846 0.653,3.78 0.653,5.785 v 0 c 0,11.281 -8.505,21.19 -18.416,21.778 v 0 c -2.747,6.225 -8.811,11.933 -18.012,13.906 v 0 c -7.071,1.512 -15.072,-0.133 -19.466,-4.005 v 0 c -0.631,-0.557 -1.174,-1.146 -1.627,-1.762 v 0 c -1.171,-1.596 -1.733,-3.375 -1.658,-5.245 v 0 l -3.295,2.705 -15.438,12.674 z m 18.408,-27.967 -16.081,9.982 v 16.697 L 401,410.21 v -22.737 l 5.769,-5.769 v -17.006 h 2.328 v 17.97 l -5.768,5.769 v 21.416 l 13.4,-10.997 3.37,-2.572 c 0.787,-0.762 1.28,-0.841 2.073,-0.536 v 0 c 0.679,0.26 1.1,0.879 1.154,1.697 v 0 l -0.008,0.752 c -0.213,2.485 1.24,4.324 2.494,5.431 v 0 c 3.877,3.414 11.048,4.845 17.438,3.474 v 0 c 11.608,-2.488 17.872,-11.776 17.872,-19.252 v 0 c 0,-7.781 -6.329,-14.111 -14.109,-14.111 v 0 -2.329 c 9.063,0 16.438,7.376 16.438,16.44 v 0 c 0,1.694 -0.273,3.449 -0.796,5.197 v 0 c 7.506,-1.134 15.184,-9.029 15.184,-19.352 v 0 c 0,-10.756 -6.921,-19.507 -15.427,-19.507 v 0 -2.328 c 7.477,0 13.874,5.719 16.487,13.78 v 0 c 7.155,-0.676 12.773,-6.714 12.773,-14.042 v 0 c 0,-7.779 -6.331,-14.11 -14.11,-14.11 v 0 -2.328 c 5.32,0 10.045,2.552 13.051,6.485 v 0 c 1.162,-2.998 1.096,-6.397 -0.219,-9.721 v 0 c -1.537,-3.883 -4.582,-7.192 -8.573,-9.316 v 0 c -8.174,-4.353 -17.8,-2.304 -21.455,4.563 v 0 l -2.055,-1.094 c 2.774,-5.209 8.419,-8.078 14.591,-8.078 v 0 c 3.063,0 6.253,0.717 9.287,2.195 v 0 c 2.53,-6.603 -0.381,-14.316 -6.991,-17.789 v 0 c -7.11,-3.736 -15.838,-1.169 -19.455,5.719 v 0 l -2.062,-1.084 c 1.678,-3.196 4.299,-5.588 7.363,-7.045 v 0 c -0.791,-7.267 -9.329,-13.013 -19.732,-13.013 v 0 c -10.923,0 -20.982,8.366 -24.766,16.402 v 0 l -0.512,-0.901 -0.178,0.854 -22.129,-18.402 -28.845,16.825 v 15.823 l 14.904,8.302 12.095,-7.194 v -17.599 h 2.327 v 18.923 l -13.238,7.875 v 16.05 l 14.324,8.417 v 18.861 h -2.328 V 353.69 l -14.325,-8.418 v -9.118 l -19.723,12.73 -1.263,-1.957 20.986,-13.545 v -5.47 l -14.934,-8.318 -13.489,7.244 v 15.746 2.786 15.345 l 12.947,7.78 16.027,-9.948 z"
         inkscape:connector-curvature="0" /></clipPath><linearGradient
       id="linearGradient52"
       spreadMethod="pad"
       gradientTransform="matrix(146.10986,0,0,-146.10986,347.89008,347.91559)"
       gradientUnits="userSpaceOnUse"
       y2="0"
       x2="1"
       y1="0"
       x1="0"><stop
         id="stop46"
         offset="0"
         style="stop-opacity:1;stop-color:#3cbeec" /><stop
         id="stop48"
         offset="0.996397"
         style="stop-opacity:1;stop-color:#28316d" /><stop
         id="stop50"
         offset="1"
         style="stop-opacity:1;stop-color:#28316d" /></linearGradient><clipPath
       id="clipPath62"
       clipPathUnits="userSpaceOnUse"><path
         id="path60"
         d="m 354.997,347.906 c 0,-1.817 1.472,-3.291 3.29,-3.291 v 0 c 1.817,0 3.29,1.474 3.29,3.291 v 0 c 0,1.817 -1.473,3.29 -3.29,3.29 v 0 c -1.818,0 -3.29,-1.473 -3.29,-3.29"
         inkscape:connector-curvature="0" /></clipPath><linearGradient
       id="linearGradient74"
       spreadMethod="pad"
       gradientTransform="matrix(6.5802784,0,0,-6.5802784,354.99677,347.90564)"
       gradientUnits="userSpaceOnUse"
       y2="0"
       x2="1"
       y1="0"
       x1="0"><stop
         id="stop68"
         offset="0"
         style="stop-opacity:1;stop-color:#3cbeec" /><stop
         id="stop70"
         offset="0.996396"
         style="stop-opacity:1;stop-color:#28316d" /><stop
         id="stop72"
         offset="1"
         style="stop-opacity:1;stop-color:#28316d" /></linearGradient><clipPath
       id="clipPath84"
       clipPathUnits="userSpaceOnUse"><path
         id="path82"
         d="m 390.718,304.097 c -1.285,-1.285 -1.285,-3.367 0,-4.653 v 0 c 1.284,-1.285 3.368,-1.285 4.653,0 v 0 c 1.285,1.286 1.285,3.368 0,4.653 v 0 c -0.643,0.643 -1.485,0.964 -2.327,0.964 v 0 c -0.842,0 -1.684,-0.321 -2.326,-0.964"
         inkscape:connector-curvature="0" /></clipPath><linearGradient
       id="linearGradient96"
       spreadMethod="pad"
       gradientTransform="matrix(6.5802784,0,0,-6.5802784,389.75406,301.77081)"
       gradientUnits="userSpaceOnUse"
       y2="0"
       x2="1"
       y1="0"
       x1="0"><stop
         id="stop90"
         offset="0"
         style="stop-opacity:1;stop-color:#3cbeec" /><stop
         id="stop92"
         offset="0.996397"
         style="stop-opacity:1;stop-color:#28316d" /><stop
         id="stop94"
         offset="1"
         style="stop-opacity:1;stop-color:#28316d" /></linearGradient><clipPath
       id="clipPath106"
       clipPathUnits="userSpaceOnUse"><path
         id="path104"
         d="m 376.515,359.536 c 0,-1.817 1.473,-3.29 3.29,-3.29 v 0 c 1.817,0 3.291,1.473 3.291,3.29 v 0 c 0,1.818 -1.474,3.291 -3.291,3.291 v 0 c -1.817,0 -3.29,-1.473 -3.29,-3.291"
         inkscape:connector-curvature="0" /></clipPath><linearGradient
       id="linearGradient118"
       spreadMethod="pad"
       gradientTransform="matrix(6.5802784,0,0,-6.5802784,376.5152,359.53665)"
       gradientUnits="userSpaceOnUse"
       y2="0"
       x2="1"
       y1="0"
       x1="0"><stop
         id="stop112"
         offset="0"
         style="stop-opacity:1;stop-color:#3cbeec" /><stop
         id="stop114"
         offset="0.996396"
         style="stop-opacity:1;stop-color:#28316d" /><stop
         id="stop116"
         offset="1"
         style="stop-opacity:1;stop-color:#28316d" /></linearGradient><clipPath
       id="clipPath128"
       clipPathUnits="userSpaceOnUse"><path
         id="path126"
         d="m 390.84,371.187 c 0,-1.817 1.474,-3.29 3.291,-3.29 v 0 c 1.816,0 3.289,1.473 3.289,3.29 v 0 c 0,1.818 -1.473,3.29 -3.289,3.29 v 0 c -1.817,0 -3.291,-1.472 -3.291,-3.29"
         inkscape:connector-curvature="0" /></clipPath><linearGradient
       id="linearGradient140"
       spreadMethod="pad"
       gradientTransform="matrix(6.5802784,0,0,-6.5802784,390.84024,371.18729)"
       gradientUnits="userSpaceOnUse"
       y2="0"
       x2="1"
       y1="0"
       x1="0"><stop
         id="stop134"
         offset="0"
         style="stop-opacity:1;stop-color:#3cbeec" /><stop
         id="stop136"
         offset="0.996396"
         style="stop-opacity:1;stop-color:#28316d" /><stop
         id="stop138"
         offset="1"
         style="stop-opacity:1;stop-color:#28316d" /></linearGradient><clipPath
       id="clipPath150"
       clipPathUnits="userSpaceOnUse"><path
         id="path148"
         d="M 0,595.28 H 841.89 V 0 H 0 Z"
         inkscape:connector-curvature="0" /></clipPath><clipPath
       id="clipPath162"
       clipPathUnits="userSpaceOnUse"><path
         id="path160"
         d="m 405.607,367.025 c -1.286,-1.286 -1.286,-3.368 0,-4.654 v 0 c 1.285,-1.285 3.367,-1.285 4.653,0 v 0 c 1.285,1.286 1.285,3.368 0,4.654 v 0 c -0.643,0.642 -1.485,0.963 -2.327,0.963 v 0 c -0.842,0 -1.684,-0.321 -2.326,-0.963"
         inkscape:connector-curvature="0" /></clipPath><linearGradient
       id="linearGradient174"
       spreadMethod="pad"
       gradientTransform="matrix(6.5802784,0,0,-6.5802784,404.64307,364.69812)"
       gradientUnits="userSpaceOnUse"
       y2="0"
       x2="1"
       y1="0"
       x1="0"><stop
         id="stop168"
         offset="0"
         style="stop-opacity:1;stop-color:#3cbeec" /><stop
         id="stop170"
         offset="0.996396"
         style="stop-opacity:1;stop-color:#28316d" /><stop
         id="stop172"
         offset="1"
         style="stop-opacity:1;stop-color:#28316d" /></linearGradient><clipPath
       id="clipPath184"
       clipPathUnits="userSpaceOnUse"><path
         id="path182"
         d="M 0,595.28 H 841.89 V 0 H 0 Z"
         inkscape:connector-curvature="0" /></clipPath></defs><g
     transform="matrix(1.3333333,0,0,-1.3333333,-356.13212,558.04954)"
     id="g10"><g
       id="g12"><g
         clip-path="url(#clipPath18)"
         id="g14"><g
           id="g20"><g
             id="g22"><path
               id="path32"
               style="fill:url(#linearGradient30);stroke:none"
               d="m 565.437,400.089 c 0.007,-0.024 0.017,-0.036 0.023,-0.079 v 0 c -0.005,0.036 -0.002,0.05 -0.005,0.08 v 0 z"
               inkscape:connector-curvature="0" /></g></g></g></g><g
       id="g34"><g
         clip-path="url(#clipPath40)"
         id="g36"><g
           id="g42"><g
             id="g44"><path
               id="path54"
               style="fill:url(#linearGradient52);stroke:none"
               d="m 362.011,388.493 v -17.974 l -14.12,-8.487 v -36.587 l 14.662,-7.875 v -17.146 l 31.437,-18.338 21.869,18.179 c 4.091,-8.801 13.721,-15.611 25.453,-15.611 v 0 c 11.31,0 20.651,6.333 21.965,14.473 v 0 c 1.61,-0.499 3.299,-0.765 5.011,-0.765 v 0 c 2.69,0 5.433,0.637 7.993,1.982 v 0 c 7.767,4.08 11.121,13.233 7.964,20.988 v 0 c 3.822,2.382 6.75,5.786 8.313,9.735 v 0 c 1.755,4.434 1.592,9.01 -0.45,12.901 v 0 c 1.203,2.283 1.892,4.876 1.892,7.63 v 0 c 0,8.403 -6.34,15.342 -14.486,16.312 v 0 c 0.414,1.846 0.653,3.78 0.653,5.785 v 0 c 0,11.281 -8.505,21.19 -18.416,21.778 v 0 c -2.747,6.225 -8.811,11.933 -18.012,13.906 v 0 c -7.071,1.512 -15.072,-0.133 -19.466,-4.005 v 0 c -0.631,-0.557 -1.174,-1.146 -1.627,-1.762 v 0 c -1.171,-1.596 -1.733,-3.375 -1.658,-5.245 v 0 l -3.295,2.705 -15.438,12.674 z m 18.408,-27.967 -16.081,9.982 v 16.697 L 401,410.21 v -22.737 l 5.769,-5.769 v -17.006 h 2.328 v 17.97 l -5.768,5.769 v 21.416 l 13.4,-10.997 3.37,-2.572 c 0.787,-0.762 1.28,-0.841 2.073,-0.536 v 0 c 0.679,0.26 1.1,0.879 1.154,1.697 v 0 l -0.008,0.752 c -0.213,2.485 1.24,4.324 2.494,5.431 v 0 c 3.877,3.414 11.048,4.845 17.438,3.474 v 0 c 11.608,-2.488 17.872,-11.776 17.872,-19.252 v 0 c 0,-7.781 -6.329,-14.111 -14.109,-14.111 v 0 -2.329 c 9.063,0 16.438,7.376 16.438,16.44 v 0 c 0,1.694 -0.273,3.449 -0.796,5.197 v 0 c 7.506,-1.134 15.184,-9.029 15.184,-19.352 v 0 c 0,-10.756 -6.921,-19.507 -15.427,-19.507 v 0 -2.328 c 7.477,0 13.874,5.719 16.487,13.78 v 0 c 7.155,-0.676 12.773,-6.714 12.773,-14.042 v 0 c 0,-7.779 -6.331,-14.11 -14.11,-14.11 v 0 -2.328 c 5.32,0 10.045,2.552 13.051,6.485 v 0 c 1.162,-2.998 1.096,-6.397 -0.219,-9.721 v 0 c -1.537,-3.883 -4.582,-7.192 -8.573,-9.316 v 0 c -8.174,-4.353 -17.8,-2.304 -21.455,4.563 v 0 l -2.055,-1.094 c 2.774,-5.209 8.419,-8.078 14.591,-8.078 v 0 c 3.063,0 6.253,0.717 9.287,2.195 v 0 c 2.53,-6.603 -0.381,-14.316 -6.991,-17.789 v 0 c -7.11,-3.736 -15.838,-1.169 -19.455,5.719 v 0 l -2.062,-1.084 c 1.678,-3.196 4.299,-5.588 7.363,-7.045 v 0 c -0.791,-7.267 -9.329,-13.013 -19.732,-13.013 v 0 c -10.923,0 -20.982,8.366 -24.766,16.402 v 0 l -0.512,-0.901 -0.178,0.854 -22.129,-18.402 -28.845,16.825 v 15.823 l 14.904,8.302 12.095,-7.194 v -17.599 h 2.327 v 18.923 l -13.238,7.875 v 16.05 l 14.324,8.417 v 18.861 h -2.328 V 353.69 l -14.325,-8.418 v -9.118 l -19.723,12.73 -1.263,-1.957 20.986,-13.545 v -5.47 l -14.934,-8.318 -13.489,7.244 v 15.746 2.786 15.345 l 12.947,7.78 16.027,-9.948 z"
               inkscape:connector-curvature="0" /></g></g></g></g><g
       id="g56"><g
         clip-path="url(#clipPath62)"
         id="g58"><g
           id="g64"><g
             id="g66"><path
               id="path76"
               style="fill:url(#linearGradient74);stroke:none"
               d="m 354.997,347.906 c 0,-1.817 1.472,-3.291 3.29,-3.291 v 0 c 1.817,0 3.29,1.474 3.29,3.291 v 0 c 0,1.817 -1.473,3.29 -3.29,3.29 v 0 c -1.818,0 -3.29,-1.473 -3.29,-3.29"
               inkscape:connector-curvature="0" /></g></g></g></g><g
       id="g78"><g
         clip-path="url(#clipPath84)"
         id="g80"><g
           id="g86"><g
             id="g88"><path
               id="path98"
               style="fill:url(#linearGradient96);stroke:none"
               d="m 390.718,304.097 c -1.285,-1.285 -1.285,-3.367 0,-4.653 v 0 c 1.284,-1.285 3.368,-1.285 4.653,0 v 0 c 1.285,1.286 1.285,3.368 0,4.653 v 0 c -0.643,0.643 -1.485,0.964 -2.327,0.964 v 0 c -0.842,0 -1.684,-0.321 -2.326,-0.964"
               inkscape:connector-curvature="0" /></g></g></g></g><g
       id="g100"><g
         clip-path="url(#clipPath106)"
         id="g102"><g
           id="g108"><g
             id="g110"><path
               id="path120"
               style="fill:url(#linearGradient118);stroke:none"
               d="m 376.515,359.536 c 0,-1.817 1.473,-3.29 3.29,-3.29 v 0 c 1.817,0 3.291,1.473 3.291,3.29 v 0 c 0,1.818 -1.474,3.291 -3.291,3.291 v 0 c -1.817,0 -3.29,-1.473 -3.29,-3.291"
               inkscape:connector-curvature="0" /></g></g></g></g><g
       id="g122"><g
         clip-path="url(#clipPath128)"
         id="g124"><g
           id="g130"><g
             id="g132"><path
               id="path142"
               style="fill:url(#linearGradient140);stroke:none"
               d="m 390.84,371.187 c 0,-1.817 1.474,-3.29 3.291,-3.29 v 0 c 1.816,0 3.289,1.473 3.289,3.29 v 0 c 0,1.818 -1.473,3.29 -3.289,3.29 v 0 c -1.817,0 -3.291,-1.472 -3.291,-3.29"
               inkscape:connector-curvature="0" /></g></g></g></g><g
       id="g144"><g
         clip-path="url(#clipPath150)"
         id="g146"><g
           transform="translate(415.3276,303.4904)"
           id="g152"><path
             id="path154"
             style="fill:#28306d;fill-opacity:1;fill-rule:nonzero;stroke:none"
             d="m 0,0 -0.176,-5.506 1.334,-0.12 0.531,5.508 z"
             inkscape:connector-curvature="0" /></g></g></g><g
       id="g156"><g
         clip-path="url(#clipPath162)"
         id="g158"><g
           id="g164"><g
             id="g166"><path
               id="path176"
               style="fill:url(#linearGradient174);stroke:none"
               d="m 405.607,367.025 c -1.286,-1.286 -1.286,-3.368 0,-4.654 v 0 c 1.285,-1.285 3.367,-1.285 4.653,0 v 0 c 1.285,1.286 1.285,3.368 0,4.654 v 0 c -0.643,0.642 -1.485,0.963 -2.327,0.963 v 0 c -0.842,0 -1.684,-0.321 -2.326,-0.963"
               inkscape:connector-curvature="0" /></g></g></g></g><g
       id="g178"><g
         clip-path="url(#clipPath184)"
         id="g180"><g
           transform="translate(420.2837,395.3801)"
           id="g186"><path
             id="path188"
             style="fill:#28306d;fill-opacity:1;fill-rule:nonzero;stroke:none"
             d="m 0,0 c -0.077,-2.138 -0.08,-4.255 0.062,-6.324 0.085,-1.252 0.256,-2.491 0.495,-3.565 0.272,-1.224 0.785,-1.251 1.224,-0.097 0.341,0.893 0.657,1.948 0.86,3.04 0.796,4.28 1.251,8.595 1.361,12.924 0.057,2.217 0.023,4.438 -0.103,6.659 -0.005,0.081 -0.009,0.162 -0.014,0.243 -0.065,1.098 -0.275,2.15 -0.51,3.061 -0.242,0.944 -0.644,0.969 -1.03,0.196 -0.784,-1.574 -1.107,-3.74 -1.444,-5.89 0,0 -0.427,-3.122 -0.648,-5.756 m 0,0 C 0.229,4.204 0.208,3.923 0.189,3.653 0.111,2.432 0.044,1.212 0,0 m -1.475,5.268 c 0.366,3.973 0.598,5.464 0.598,5.464 0.436,3.328 1.028,6.498 1.978,9.28 0.095,0.279 0.192,0.554 0.296,0.812 1.268,3.148 2.594,3.121 3.464,-0.146 0.63,-2.367 0.863,-5.123 0.957,-8.004 C 5.84,11.966 5.855,11.251 5.866,10.533 5.886,9.027 5.856,7.521 5.79,6.015 5.667,3.215 5.424,0.415 5.17,-2.383 4.4,-10.871 3.632,-19.359 2.841,-27.841 1.955,-37.349 1.045,-46.852 0.142,-56.356 c -0.777,-8.174 -1.555,-16.348 -2.338,-24.519 -0.352,-3.672 -0.705,-7.343 -1.059,-11.014 -0.172,-1.778 -0.343,-3.555 -0.515,-5.333 -0.354,-3.671 -0.708,-7.343 -1.061,-11.015 -0.263,-2.738 -0.52,-5.477 -0.779,-8.217 -0.097,0.007 -0.059,0.004 -0.156,0.011 0.223,6.579 0.437,13.024 0.645,19.377 0.062,1.91 1.956,61.728 2.96,91.6 0.071,2.103 0.179,4.211 0.325,6.316 m 0,0 c 0.068,0.983 0.145,1.967 0.23,2.948 0.045,0.524 0.089,1.014 0.131,1.47"
             inkscape:connector-curvature="0" /></g><g
           transform="translate(418.6636,400.2756)"
           id="g190"><path
             id="path192"
             style="fill:#1f75a8;fill-opacity:1;fill-rule:nonzero;stroke:none"
             d="M 0,0 2.325,-1.908 1.82,-4.326 -1.294,-1.908 Z"
             inkscape:connector-curvature="0" /></g><g
           transform="translate(267.0991,261.3923)"
           id="g194"><path
             id="path196"
             style="fill:#28306d;fill-opacity:1;fill-rule:nonzero;stroke:none"
             d="M 0,0 H 52.919 V -5.64 H 29.796 V -64.668 H 23.123 V -5.64 H 0 Z"
             inkscape:connector-curvature="0" /></g><g
           transform="translate(349.7866,250.8405)"
           id="g198"><path
             id="path200"
             style="fill:#39beed;fill-opacity:1;fill-rule:nonzero;stroke:none"
             d="M 0,0 -11.545,-31.289 H 11.811 L 0.353,0 Z m -3.349,6.522 h 7.316 l 22.827,-60.638 h -6.523 l -6.433,17.451 h -27.323 l -6.434,-17.451 h -6.258 z"
             inkscape:connector-curvature="0" /></g><g
           transform="translate(341.0513,223.4685)"
           id="g202"><path
             id="path204"
             style="fill:#39beed;fill-opacity:1;fill-rule:nonzero;stroke:none"
             d="M 0,0 H 17.743 L 8.905,24.134 Z M 23.349,-4.917 H -5.621 L 7.37,31.29 h 3.087 z m 7.023,-17.91 h 2.327 L 11.346,33.895 H 6.742 l -21.353,-56.722 h 2.062 l 6.434,17.452 h 30.053 z m 7.988,-3.917 H 27.642 L 21.208,-9.293 H -3.384 L -9.818,-26.744 H -20.272 L 4.031,37.812 h 10.027 z"
             inkscape:connector-curvature="0" /></g><path
           id="path206"
           style="fill:#39beed;fill-opacity:1;fill-rule:nonzero;stroke:none"
           d="m 385.925,258.363 h 6.258 v -60.639 h -6.258 z"
           inkscape:connector-curvature="0" /><path
           id="path208"
           style="fill:#39beed;fill-opacity:1;fill-rule:nonzero;stroke:none"
           d="m 387.883,200.641 h 2.341 v 56.722 h -2.341 z m 6.259,-3.917 h -10.176 v 64.556 h 10.176 z"
           inkscape:connector-curvature="0" /><g
           transform="translate(408.8843,261.3923)"
           id="g210"><path
             id="path212"
             style="fill:#28306d;fill-opacity:1;fill-rule:nonzero;stroke:none"
             d="m 0,0 h 6.674 v -58.841 h 32.993 v -5.827 H 0 Z"
             inkscape:connector-curvature="0" /></g><g
           transform="translate(482.9551,201.7995)"
           id="g214"><path
             id="path216"
             style="fill:#28306d;fill-opacity:1;fill-rule:nonzero;stroke:none"
             d="M 0,0 C 14.287,0 24.062,11.656 24.062,27.259 24.062,42.861 14.287,54.518 0,54.518 -14.381,54.518 -24.062,42.861 -24.062,27.259 -24.062,11.656 -14.381,0 0,0 m 0,60.627 c 18.141,0 31.019,-14.193 31.019,-33.368 C 31.019,8.084 18.141,-6.109 0,-6.109 c -18.517,0 -31.018,14.193 -31.018,33.368 0,19.175 12.501,33.368 31.018,33.368"
             inkscape:connector-curvature="0" /></g><g
           transform="translate(533.6211,255.5652)"
           id="g218"><path
             id="path220"
             style="fill:#28306d;fill-opacity:1;fill-rule:nonzero;stroke:none"
             d="m 0,0 v -26.601 h 17.859 c 9.776,0 14.757,5.921 14.757,13.818 C 32.616,-4.889 27.447,0 17.859,0 Z m -6.673,5.827 h 24.25 c 14.194,0 21.713,-6.861 21.713,-18.61 0,-9.87 -5.264,-17.014 -15.228,-19.081 L 41.17,-58.841 H 33.933 L 16.92,-32.429 H 0 v -26.412 h -6.673 z"
             inkscape:connector-curvature="0" /></g></g></g></g></svg>